<mxfile host="app.diagrams.net" modified="2023-12-23T14:16:25.056Z" agent="Mozilla/5.0 (Windows NT 10.0; Win64; x64) AppleWebKit/537.36 (KHTML, like Gecko) Chrome/120.0.0.0 Safari/537.36" version="22.1.11" etag="_WIQKu7zO9GyH89FfaRi" type="github">
  <diagram name="第 1 页" id="ld54_oRhWQyOfg2C7NVg">
    <mxGraphModel>
      <root>
        <mxCell id="0" />
        <mxCell id="1" parent="0" />
      </root>
    </mxGraphModel>
  </diagram>
</mxfile>
